<svg xmlns="http://www.w3.org/2000/svg" viewBox="0 0 1600 1000" role="img" aria-label="$CB1>;:8 STITCH">
  <defs>
    <linearGradient id="bg" x1="0" x2="1" y1="0" y2="1">
      <stop offset="0" stop-color="#1b1b1b"/>
      <stop offset=".45" stop-color="#34302b"/>
      <stop offset="1" stop-color="#ff6b00"/>
    </linearGradient>
    <linearGradient id="cloth" x1="0" x2="1">
      <stop offset="0" stop-color="#f7f1e8"/>
      <stop offset="1" stop-color="#c9b9a7"/>
    </linearGradient>
    <filter id="shadow" x="-20%" y="-20%" width="140%" height="140%">
      <feDropShadow dx="0" dy="28" stdDeviation="24" flood-color="#000000" flood-opacity=".34"/>
    </filter>
  </defs>
  <rect width="1600" height="1000" fill="url(#bg)"/>
  <circle cx="1280" cy="230" r="420" fill="#ff8a2b" opacity=".28"/>
  <circle cx="1160" cy="830" r="520" fill="#050505" opacity=".26"/>
  <g opacity=".16" stroke="#ffffff" stroke-width="2">
    <path d="M0 160h1600M0 320h1600M0 480h1600M0 640h1600M0 800h1600"/>
    <path d="M180 0v1000M360 0v1000M540 0v1000M720 0v1000M900 0v1000M1080 0v1000M1260 0v1000M1440 0v1000"/>
  </g>
  <g filter="url(#shadow)" transform="translate(770 115) rotate(-8)">
    <path d="M250 84 355 30 468 82 592 158 512 292 444 250v502H168V250l-68 42L20 158 145 82z" fill="#111111"/>
    <path d="M355 30c8 70 58 106 112 52l-112-52Z" fill="#2a2a2a"/>
    <path d="M250 84c36 82 174 82 218-2l-112-52-106 54Z" fill="#202020"/>
    <path d="M168 250v502h276V250" fill="none" stroke="#2e2e2e" stroke-width="6"/>
  </g>
  <g filter="url(#shadow)" transform="translate(1035 220) rotate(9) scale(.82)">
    <path d="M250 84 355 30 468 82 592 158 512 292 444 250v502H168V250l-68 42L20 158 145 82z" fill="url(#cloth)"/>
    <path d="M250 84c36 82 174 82 218-2l-112-52-106 54Z" fill="#ded1c1"/>
    <path d="M178 358h254" stroke="#fff7ed" stroke-width="8" opacity=".45"/>
    <path d="M178 425h254" stroke="#fff7ed" stroke-width="8" opacity=".35"/>
  </g>
  <g filter="url(#shadow)" transform="translate(510 275) rotate(7) scale(.72)">
    <path d="M250 84 355 30 468 82 592 158 512 292 444 250v502H168V250l-68 42L20 158 145 82z" fill="#ff6b00"/>
    <path d="M250 84c36 82 174 82 218-2l-112-52-106 54Z" fill="#f1842f"/>
    <path d="M222 390h168v22H222z" fill="#111111" opacity=".24"/>
  </g>
</svg>
